<svg height="34" viewBox="0 0 34 34" width="34" xmlns="http://www.w3.org/2000/svg"><g fill="#d8d8d8" fill-rule="evenodd" transform="translate(-1 -1)"><path d="m1.85294118 30.4411765 28.58823532-28.58823532c1.0233511-1.02335116 2.6825312-1.02335116 3.7058823 0 1.0233512 1.02335115 1.0233512 2.6825312 0 3.70588235l-28.58823527 28.58823527c-1.02335115 1.0233512-2.6825312 1.0233512-3.70588235 0-1.02335116-1.0233511-1.02335116-2.6825312 0-3.7058823z"/><path d="m5.55882353 1.85294118 28.58823527 28.58823532c1.0233512 1.0233511 1.0233512 2.6825312 0 3.7058823-1.0233511 1.0233512-2.6825312 1.0233512-3.7058823 0l-28.58823532-28.58823527c-1.02335116-1.02335115-1.02335116-2.6825312 0-3.70588235 1.02335115-1.02335116 2.6825312-1.02335116 3.70588235 0z"/></g></svg>